<?xml version="1.0" encoding="UTF-8" standalone="no"?>
<!DOCTYPE svg PUBLIC "-//W3C//DTD SVG 1.1//EN" "http://www.w3.org/Graphics/SVG/1.1/DTD/svg11.dtd">
<!-- Created with Vectornator (http://vectornator.io/) -->
<svg height="100%" stroke-miterlimit="10" style="fill-rule:nonzero;clip-rule:evenodd;stroke-linecap:round;stroke-linejoin:round;" version="1.1" viewBox="0 0 1024 1024" width="100%" xml:space="preserve" xmlns="http://www.w3.org/2000/svg" xmlns:vectornator="http://vectornator.io" xmlns:xlink="http://www.w3.org/1999/xlink">
<defs>
<g id="Fill">
<path d="M235.35 742.766C232.95 738.366 227.783 735.5 219.85 734.166C215.583 733.366 211.417 732.2 207.35 730.666C203.55 729 201.217 727.7 200.35 726.766C199.483 725.9 199.05 724.866 199.05 723.666C199.05 718.866 200.217 714.5 202.55 710.566C204.817 706.633 209.517 703.6 216.65 701.466C223.717 699.266 231.383 698.166 239.65 698.166C242.317 698.166 244.517 698.3 246.25 698.566C247.983 698.833 249.35 699.183 250.35 699.616C251.35 700.05 252.05 700.55 252.45 701.116C252.85 701.683 253.05 702.3 253.05 702.966C253.05 704.966 252.75 706.666 252.15 708.066C251.883 708.8 251.6 709.366 251.3 709.766C251 710.166 250.617 710.5 250.15 710.766C249.683 711.033 249.117 711.3 248.45 711.566C247.783 711.833 246.95 712.166 245.95 712.566C244.083 713.233 242.55 713.833 241.35 714.366C240.883 714.633 240.333 714.933 239.7 715.266C239.067 715.6 238.35 716.033 237.55 716.566C236.817 717.1 236.2 717.5 235.7 717.766C235.2 718.033 234.85 718.2 234.65 718.266C234.317 718.266 234.15 718.05 234.15 717.616C234.15 717.183 234.683 716.466 235.75 715.466C236.283 714.933 236.917 714.416 237.65 713.916C238.383 713.416 239.183 712.933 240.05 712.466C241.917 711.466 242.85 710.8 242.85 710.466C242.85 710.133 241.617 709.966 239.15 709.966C230.483 709.966 222.85 711.133 216.25 713.466C209.85 715.8 206.65 718.366 206.65 721.166C206.65 721.7 206.833 722.216 207.2 722.716C207.567 723.216 207.983 723.533 208.45 723.666L219.65 726.966C223.45 728.033 226.833 729.266 229.8 730.666C232.767 732.066 235.117 733.466 236.85 734.866C238.583 736.266 239.817 737.65 240.55 739.016C241.283 740.383 241.65 741.833 241.65 743.366C241.65 746.1 240.483 749.133 238.15 752.466C235.95 755.666 231.417 758.133 224.55 759.866C217.817 761.666 211.183 762.566 204.65 762.566C198.183 762.566 193.3 762 190 760.866C186.7 759.733 185.05 758.166 185.05 756.166C185.05 753.966 185.983 751.833 187.85 749.766C189.717 747.566 191.95 746.466 194.55 746.466C196.217 746.466 197.05 746.633 197.05 746.966C197.05 747.1 196.55 747.366 195.55 747.766C194.617 748.1 193.983 748.35 193.65 748.516C193.317 748.683 193.15 748.933 193.15 749.266C193.15 749.933 196.483 750.266 203.15 750.266C206.55 750.266 209.517 750.216 212.05 750.116C214.583 750.016 216.75 749.833 218.55 749.566C222.15 749.1 225.3 748.3 228 747.166C230.7 746.033 233.15 744.566 235.35 742.766Z"/>
<path d="M263.15 748.766C262.35 754.566 264.95 758.666 271.45 758.666C277.35 758.666 283.55 753.566 286.45 747.966C287.85 745.166 287.75 742.466 287.35 741.666C286.95 740.766 286.05 740.866 285.55 741.766C281.65 748.766 276.55 755.366 272.35 755.566C268.75 755.766 268.35 751.566 270.95 745.866C273.25 740.766 278.25 733.266 280.45 728.766C282.85 723.766 282.05 719.366 280.55 717.566C279.75 716.566 279.05 716.766 278.05 718.166C274.85 722.466 271.95 729.366 265.65 739.566C260.25 748.266 254.75 755.266 250.85 754.966C248.55 754.766 248.25 751.166 250.35 746.266C252.45 741.466 254.45 737.466 258.15 731.566C261.75 725.866 262.25 721.366 260.05 718.066C259.25 717.166 258.25 717.066 257.45 718.166C250.95 727.266 245.85 737.066 243.65 743.666C241.45 750.266 241.65 757.666 248.75 758.166C254.35 758.566 259.65 753.466 263.15 748.766Z"/>
<path d="M311.65 710.966C310.35 708.266 307.45 707.066 305.85 708.766C304.25 710.466 303.75 713.466 305.35 716.166C306.85 718.766 309.65 719.066 310.95 717.666C312.25 716.266 312.95 713.566 311.65 710.966ZM295.35 758.366C300.95 758.366 307.25 754.166 310.25 747.966C311.45 745.466 311.75 743.366 310.95 741.766C310.55 740.966 309.85 740.866 309.35 741.766C306.35 748.666 300.85 755.266 296.35 755.466C293.15 755.666 292.95 751.766 295.35 745.966C297.45 740.966 301.65 734.166 303.75 729.766C306.15 724.766 305.35 720.466 303.85 718.866C303.05 717.966 302.35 718.266 301.45 719.466C297.75 724.666 291.15 736.466 288.65 743.766C285.85 751.966 287.75 758.366 295.35 758.366Z"/>
<path d="M324.55 717.966C320.25 725.866 316.05 734.266 313.95 739.266C309.15 750.766 314.45 758.166 321.05 758.366C329.05 758.666 335.65 749.866 336.95 746.966C337.95 744.666 338.45 742.866 337.95 741.266C337.55 739.866 336.45 740.066 335.85 741.266C332.15 748.766 326.45 755.866 321.95 755.666C317.75 755.466 316.65 749.266 319.95 741.966C323.75 733.566 329.45 723.866 333.35 717.166C335.85 716.766 338.95 716.466 341.15 716.766C342.65 716.766 343.05 716.066 342.35 714.866C341.55 713.566 340.05 711.766 336.15 711.866C338.55 706.666 338.55 703.366 337.45 700.566C336.95 699.366 335.95 699.266 335.05 700.566C333.35 702.766 330.55 707.466 327.45 712.966C324.75 713.266 321.95 713.466 319.15 713.366C317.65 713.266 317.05 713.966 318.05 715.366C318.85 716.466 321.15 717.966 324.55 717.966Z"/>
<path d="M370.85 724.366C371.05 720.466 369.05 717.166 364.75 717.166C359.75 717.166 351.85 721.666 343.75 733.466C335.45 745.566 337.35 758.266 346.65 758.266C351.45 758.266 355.95 754.566 359.15 750.466C359.15 755.166 361.95 758.366 367.35 758.666C372.85 758.966 379.15 753.466 381.75 747.966C383.05 745.166 383.05 742.666 382.65 741.766C382.25 740.866 381.55 740.966 381.05 741.866C377.55 748.766 372.05 755.566 367.95 755.766C364.55 755.966 364.65 751.666 367.15 746.066C369.55 740.766 374.55 733.266 376.75 728.766C379.15 723.766 378.35 719.466 376.85 717.666C376.15 716.766 375.35 716.966 374.45 718.266C373.35 719.866 372.15 721.966 370.85 724.366ZM362.15 739.866C357.05 748.666 351.85 755.066 347.75 754.966C343.85 754.866 345.15 746.066 350.45 737.466C355.95 728.566 363.25 722.066 366.45 722.366C369.35 722.666 368.45 728.866 362.15 739.866Z"/>
<path d="M415.35 741.766C420.85 729.566 420.45 717.766 411.95 717.766C409.35 717.766 406.25 719.366 403.35 721.966C406.45 716.466 410.75 709.566 412.25 706.766C416.35 699.266 416.35 694.766 414.85 691.966C414.05 690.566 413.25 690.566 412.35 691.866C405.45 701.466 385.85 738.466 383.15 746.766C381.15 752.866 382.15 755.766 383.65 757.766C384.25 758.566 384.85 758.466 385.25 757.466C386.15 755.366 387.25 752.966 388.15 750.866C389.95 755.266 393.35 757.966 398.65 757.966C404.45 757.966 410.65 752.266 415.35 741.766ZM410.45 721.866C412.75 722.066 413.95 728.166 408.25 739.466C402.45 751.066 397.85 754.066 394.35 753.266C391.65 752.666 390.35 749.466 390.15 746.566C393.85 738.866 398.65 730.566 403.15 725.866C406.15 722.766 408.35 721.666 410.45 721.866Z"/>
<path d="M425.65 736.866C434.55 731.066 445.75 719.066 448.85 706.766C450.05 702.066 449.45 698.366 446.55 695.766C445.15 694.466 443.75 694.666 442.25 696.266C432.05 706.866 420.65 724.966 416.95 742.366C414.65 753.166 418.35 757.966 425.25 758.166C433.25 758.366 440.55 750.066 441.95 747.066C443.05 744.666 443.45 742.466 442.95 740.866C442.55 739.466 441.45 739.566 440.75 740.866C436.85 748.566 429.85 755.766 425.05 755.366C420.55 754.966 421.65 746.666 425.65 736.866ZM427.45 732.566C428.15 730.966 428.95 729.366 429.85 727.766C436.75 714.966 444.15 703.866 445.45 704.666C446.75 705.466 441.15 721.466 427.45 732.566Z"/>
<path d="M452.55 739.766C459.55 745.466 466.25 742.866 471.15 736.866C475.35 731.766 476.15 725.666 474.35 723.266C472.75 721.066 470.95 719.566 468.45 718.066C463.45 715.166 453.25 720.366 446.75 733.266C440.25 746.166 444.65 758.666 457.35 758.466C465.05 758.366 472.75 753.766 476.95 747.666C478.75 745.066 479.05 742.266 478.65 741.466C478.25 740.566 477.45 740.566 476.95 741.366C472.65 747.966 465.35 755.966 457.05 755.566C451.75 755.266 449.35 748.966 452.55 739.766ZM453.45 737.566C453.65 737.066 453.95 736.466 454.25 735.866C458.95 726.366 467.25 720.366 469.35 722.066C470.75 723.166 468.55 728.366 465.35 732.566C462.45 736.366 458.35 740.666 453.45 737.566Z"/>
<path d="M554.45 745.566C552.05 748.633 549.767 751.4 547.6 753.866C545.433 756.333 543.383 758.566 541.45 760.566C535.183 766.9 529.117 770.8 523.25 772.266C517.383 773.733 512.217 773.266 507.75 770.866C504.283 769.133 501.6 766.116 499.7 761.816C497.8 757.516 497.25 752.233 498.05 745.966C498.717 741.166 500.317 736.283 502.85 731.316C505.383 726.35 508.85 720.866 513.25 714.866C517.517 709.2 521.867 704.55 526.3 700.916C530.733 697.283 534.683 694.933 538.15 693.866C540.817 693 542.867 692.583 544.3 692.616C545.733 692.65 547.117 693.066 548.45 693.866C550.783 695.533 552.333 698.133 553.1 701.666C553.867 705.2 553.25 709.566 551.25 714.766C549.25 719.366 546.7 723.7 543.6 727.766C540.5 731.833 537.383 735.266 534.25 738.066C531.85 740.266 529.95 741.55 528.55 741.916C527.15 742.283 525.75 741.9 524.35 740.766C523.417 740.033 522.917 738.866 522.85 737.266C522.783 735.666 523.45 733.7 524.85 731.366C525.65 730.1 526.517 728.833 527.45 727.566C528.383 726.3 529.3 725.166 530.2 724.166C531.1 723.166 531.883 722.366 532.55 721.766C533.217 721.166 533.717 720.866 534.05 720.866C534.717 720.866 534.817 721.466 534.35 722.666C532.35 725.8 530.917 728.3 530.05 730.166C529.183 732.033 528.767 733.35 528.8 734.116C528.833 734.883 529.283 735.083 530.15 734.716C531.017 734.35 532.183 733.5 533.65 732.166C535.783 730.233 537.85 728.1 539.85 725.766C541.85 723.433 543.583 720.95 545.05 718.316C546.517 715.683 547.617 712.933 548.35 710.066C549.083 707.2 549.25 704.233 548.85 701.166C548.65 699.766 548.15 698.633 547.35 697.766C546.55 696.9 545.467 696.416 544.1 696.316C542.733 696.216 541.083 696.566 539.15 697.366C537.217 698.166 535.05 699.533 532.65 701.466C530.05 703.4 527.467 705.683 524.9 708.316C522.333 710.95 519.883 713.766 517.55 716.766C515.217 719.766 513.067 722.883 511.1 726.116C509.133 729.35 507.467 732.566 506.1 735.766C504.733 738.966 503.733 742.05 503.1 745.016C502.467 747.983 502.317 750.7 502.65 753.166C503.117 756.9 504.05 760.033 505.45 762.566C506.85 765.1 508.817 766.8 511.35 767.666C513.883 768.533 517.033 768.466 520.8 767.466C524.567 766.466 529.083 764.3 534.35 760.966C535.75 760.1 537.267 758.983 538.9 757.616C540.533 756.25 542.217 754.733 543.95 753.066C545.683 751.4 547.4 749.65 549.1 747.816C550.8 745.983 552.417 744.166 553.95 742.366L554.45 745.566Z"/>
<path d="M650.35 741.766C649.85 741.066 649.15 740.866 648.65 741.766C644.85 748.866 640.35 755.366 636.35 755.566C632.65 755.766 631.35 751.066 634.15 745.366C636.55 740.466 641.35 733.866 643.25 729.366C645.25 724.566 644.45 718.666 640.85 718.566C637.65 718.466 630.95 723.166 626.25 727.666C627.45 723.266 625.75 717.966 622.35 717.866C618.75 717.766 611.45 723.666 606.95 728.666C608.45 724.766 608.75 720.866 607.15 718.266C606.55 717.266 605.55 717.266 604.95 718.266C599.85 726.366 593.35 733.766 586.95 733.866C587.15 733.366 587.15 732.766 587.15 732.266C587.75 724.866 584.75 724.366 582.35 721.266C580.25 718.566 578.75 717.666 575.65 717.866C569.65 718.266 563.55 724.166 559.75 730.866C555.25 738.766 553.75 747.566 558.05 753.366C562.05 758.766 567.15 758.866 570.75 757.666C578.15 755.266 584.45 744.866 586.45 736.266C589.95 736.566 592.95 735.666 595.75 733.766C592.85 739.366 590.35 744.466 589.35 747.766C587.75 752.766 588.25 756.166 590.35 757.866C591.35 758.666 591.85 758.366 592.25 757.566C596.25 748.166 601.05 738.966 606.85 732.666C613.25 725.666 618.25 722.966 619.25 723.366C621.15 724.166 610.45 737.866 607.25 746.166C604.55 753.266 605.75 757.066 607.35 758.666C608.25 759.566 609.15 759.266 609.65 758.066C613.85 748.766 618.75 739.266 626.95 731.066C633.35 724.666 636.85 723.366 637.65 723.666C639.15 724.266 630.25 735.266 626.65 743.666C623.15 751.766 626.15 758.566 634.75 758.666C640.45 758.766 646.85 753.566 649.65 748.066C650.85 745.666 650.85 742.466 650.35 741.766ZM580.75 732.266C578.75 730.566 578.05 727.666 578.35 725.566C578.75 722.566 580.85 722.066 581.35 725.266C581.65 727.066 581.35 729.366 580.75 732.266ZM579.95 734.766C579.25 737.366 578.05 740.266 576.35 743.366C571.45 752.366 565.35 756.066 562.65 753.666C560.05 751.366 561.35 742.266 565.75 734.766C567.95 730.966 570.75 727.566 573.45 725.266C573.65 729.166 576.45 732.866 579.95 734.766Z"/>
<path d="M674.15 756.466C677.95 754.166 681.65 749.366 684.65 742.766C688.35 734.566 690.55 725.666 685.75 720.566C681.45 716.066 675.55 718.866 671.15 722.666C671.25 720.966 671.05 719.466 670.55 718.166C670.05 716.966 669.15 716.766 668.15 718.066C661.85 726.466 645.05 758.166 642.05 767.866C640.15 773.966 640.65 776.766 642.15 778.866C642.75 779.766 643.45 779.566 643.85 778.666C648.65 767.566 653.75 757.366 658.45 748.766C658.75 751.266 659.75 753.566 661.85 755.466C665.35 758.666 669.55 759.566 675.95 759.166C683.15 758.666 689.95 755.366 693.75 748.466C695.45 745.366 695.25 742.766 695.05 741.866C694.85 740.866 693.75 740.466 693.15 741.866C689.95 748.666 683.95 755.866 674.15 756.466ZM664.05 738.766C665.25 736.666 666.35 734.866 667.45 733.066C672.15 725.366 678.35 720.366 680.75 721.566C683.25 722.766 682.15 731.066 678.25 739.066C673.55 748.666 667.05 755.966 663.85 753.366C661.05 751.066 661.55 745.066 664.05 738.766Z"/>
<path d="M727.95 724.366C728.15 720.466 726.15 717.166 721.85 717.166C716.85 717.166 708.95 721.666 700.85 733.466C692.55 745.566 694.45 758.266 703.75 758.266C708.55 758.266 713.05 754.566 716.25 750.466C716.25 755.166 719.05 758.366 724.45 758.666C729.95 758.966 736.25 753.466 738.85 747.966C740.15 745.166 740.15 742.666 739.75 741.766C739.35 740.866 738.65 740.966 738.15 741.866C734.65 748.766 729.15 755.566 725.05 755.766C721.65 755.966 721.75 751.666 724.25 746.066C726.65 740.766 731.65 733.266 733.85 728.766C736.25 723.766 735.45 719.466 733.95 717.666C733.25 716.766 732.45 716.966 731.55 718.266C730.45 719.866 729.25 721.966 727.95 724.366ZM719.25 739.866C714.15 748.666 708.95 755.066 704.85 754.966C700.95 754.866 702.25 746.066 707.55 737.466C713.05 728.566 720.35 722.066 723.55 722.366C726.45 722.666 725.55 728.866 719.25 739.866Z"/>
<path d="M758.25 727.466C759.35 723.866 759.45 720.466 757.95 717.966C757.35 716.966 756.55 716.866 755.85 717.966C749.55 727.266 741.85 741.166 739.85 747.466C738.25 752.466 738.85 755.766 740.85 757.766C741.75 758.666 742.35 758.266 742.75 757.366C747.05 747.966 751.45 738.366 757.35 731.966C763.75 724.966 769.55 722.166 770.55 722.566C772.35 723.366 763.55 733.966 760.25 743.766C757.35 752.466 759.35 758.666 767.85 758.666C773.65 758.666 779.95 753.566 782.65 747.966C784.05 745.066 784.25 742.766 783.55 741.666C783.05 740.866 782.35 740.866 781.85 741.766C778.05 748.766 773.15 755.366 769.05 755.566C765.45 755.766 764.85 751.066 767.45 745.266C769.75 740.066 774.65 732.666 776.75 728.266C779.25 723.066 776.15 718.166 772.85 717.666C769.55 717.166 762.75 722.666 758.25 727.466Z"/>
<path d="M824.75 747.166C826.45 744.566 826.75 742.266 826.55 741.366C826.35 740.366 825.45 740.466 824.95 741.166C820.95 746.666 815.05 752.366 807.25 756.566C811.45 746.866 817.55 734.866 820.55 729.066C823.15 723.966 822.35 719.666 820.95 717.866C820.05 717.066 819.35 717.266 818.45 718.566C814.95 723.666 810.65 732.666 806.35 740.066C801.25 748.766 796.25 755.166 792.35 754.866C790.05 754.666 789.85 751.166 791.85 746.266C793.75 741.566 795.95 737.466 799.55 731.666C803.25 725.766 803.85 721.566 801.45 718.366C800.75 717.366 799.75 717.266 798.95 718.366C792.45 727.366 787.55 737.266 785.35 743.666C783.05 750.266 783.25 757.566 790.45 758.166C794.45 758.466 798.25 755.866 801.35 752.666C800.25 755.066 799.25 757.566 798.25 759.866C788.35 763.766 779.85 769.766 776.85 778.766C774.85 784.666 776.85 788.166 778.85 791.166C780.75 793.966 782.65 793.966 784.55 793.266C792.85 790.066 799.95 773.966 805.55 760.566C813.85 757.166 820.85 753.366 824.75 747.166ZM796.55 764.066C790.35 778.766 782.15 789.666 780.85 787.766C779.05 785.266 783.55 771.566 796.55 764.066Z"/>
<path d="M822.65 752.566C821.55 754.966 822.15 757.866 824.15 758.566C826.15 759.266 828.75 757.666 829.85 755.066C830.95 752.366 830.35 749.766 828.35 749.066C826.35 748.366 823.85 749.866 822.65 752.566Z"/>
</g>
<g id="Fill_2">
<path d="M312.2 839.866C312.9 840.366 313.8 840.666 314.8 840.666L315.6 840.666L315.6 846.366C315.6 850.566 318.1 853.366 321.9 853.366L339.1 853.366C342.9 853.366 345.4 850.566 345.4 846.366L345.4 810.866C345.4 806.666 342.9 803.866 339.1 803.866L321.9 803.866C318.1 803.866 315.6 806.666 315.6 810.866L315.6 815.466L314.8 815.466C313.8 815.466 312.9 815.766 312.2 816.266L312.2 810.866C312.2 806.666 309.7 803.866 305.9 803.866L267.9 803.866C264.1 803.866 261.6 806.666 261.6 810.866L261.6 817.566C261.6 821.766 264.1 824.566 267.9 824.566L271.8 824.566C271.4 827.766 270 829.866 267.8 830.966C263.4 833.266 261.6 835.766 261.6 839.266L261.6 846.666C261.6 850.966 264.1 853.766 267.9 853.466C275.3 852.866 282.1 851.066 286.8 845.966C291.6 851.066 298.5 852.866 305.9 853.466C309.6 853.766 312.2 850.966 312.2 846.666L312.2 839.866ZM345.4 862.766C345.4 858.566 342.9 855.766 339.1 855.766L267.9 855.766C264.1 855.766 261.6 858.566 261.6 862.766L261.6 871.866C261.6 876.066 264.1 878.866 267.9 878.866L316 878.866L316 885.666C316 889.866 318.5 892.666 322.3 892.666L339.1 892.666C342.9 892.666 345.4 889.866 345.4 885.666L345.4 862.766ZM305.9 824.566C307.7 824.566 309.2 823.966 310.3 822.866L310.3 832.966C309.6 832.366 308.8 831.866 307.8 831.466C304.7 830.466 302.2 828.366 301.9 824.566L305.9 824.566Z"/>
<path d="M433.6 878.666C434 874.266 434 871.266 433.6 866.866C432.8 856.766 426.3 853.066 416.1 852.866C398.4 852.466 386.3 852.466 368.7 852.866C358.5 853.066 351.9 856.766 351.1 866.866C350.7 871.266 350.7 874.266 351.1 878.666C351.9 888.766 358.5 892.466 368.7 892.666C386.3 893.066 398.4 893.066 416.1 892.666C426.3 892.466 432.8 888.766 433.6 878.666ZM401.2 835.666C401.2 831.566 398.8 829.066 395 829.266C390.1 829.566 385.4 829.366 380.4 828.666L380.4 825.566C385.4 826.266 390.1 826.466 395 826.166C398.7 825.966 401.2 822.866 401.2 818.566L401.2 810.866C401.2 806.666 398.7 803.866 394.9 803.866L357.9 803.866C354.1 803.866 351.6 806.666 351.6 810.866L351.6 843.466C351.6 847.666 354.1 850.466 357.9 850.466L394.9 850.466C398.7 850.466 401.2 847.666 401.2 843.466L401.2 835.666ZM433.2 842.866C433.2 838.666 439.4 838.866 439.4 834.666L439.4 820.466C439.4 816.266 433.2 816.466 433.2 812.266L433.2 810.866C433.2 806.666 430.7 803.866 426.9 803.866L410.1 803.866C406.3 803.866 403.8 806.666 403.8 810.866L403.8 843.466C403.8 847.666 406.3 850.466 410.1 850.466L426.9 850.466C430.7 850.466 433.2 847.666 433.2 843.466L433.2 842.866ZM406 873.966C397.4 871.966 387.4 871.966 378.7 873.966L378.7 871.566C387.4 869.566 397.4 869.566 406 871.566L406 873.966Z"/>
<path d="M523.2 850.866C523.2 846.666 529.4 846.866 529.4 842.666L529.4 827.466C529.4 823.266 523.2 823.466 523.2 819.266L523.2 810.866C523.2 806.666 520.7 803.866 516.9 803.866L504.6 803.866C500.8 803.866 498.3 806.666 498.3 810.866L498.3 866.066C498.3 870.266 500.8 873.066 504.6 873.066L516.9 873.066C520.7 873.066 523.2 870.266 523.2 866.066L523.2 850.866ZM523.2 882.566C523.2 878.366 520.7 875.566 516.9 875.566L474.7 875.566C468.6 875.566 467.3 864.766 461.2 864.766L447.9 864.766C444.1 864.766 441.6 867.566 441.6 871.766L441.6 885.666C441.6 889.866 444.1 892.666 447.9 892.666L516.9 892.666C520.7 892.666 523.2 889.866 523.2 885.666L523.2 882.566ZM495.6 848.466C496 844.666 496 842.366 495.6 838.766C494.7 828.966 488.4 824.966 482 824.266C472.6 823.366 464.5 823.366 455.2 824.266C448.5 824.966 442.5 828.966 441.6 838.766C441.2 842.366 441.2 844.666 441.6 848.466C442.5 857.966 448.5 862.366 455.2 863.066C464.5 863.966 472.6 863.966 482 863.066C488.4 862.366 494.7 857.966 495.6 848.466ZM467.7 847.966C468.6 845.766 468.6 842.066 467.7 839.766L470.5 839.766C471.5 842.066 471.5 845.766 470.5 847.966L467.7 847.966ZM495.6 813.066C495.6 809.466 493.5 807.066 490.2 807.066L485.3 807.066C481.6 807.066 478.8 801.666 475 801.666L461.5 801.666C457.8 801.666 455 807.066 451.2 807.066L446.9 807.066C443.6 807.066 441.5 809.466 441.5 813.066L441.5 816.266C441.5 819.866 443.6 822.266 446.9 822.266L490.3 822.266C493.5 822.266 495.6 819.866 495.6 816.266L495.6 813.066Z"/>
<path d="M611.1 855.166C611.5 850.866 611.5 848.066 611.1 843.766C610.3 832.266 603.8 827.666 597.2 826.866C587.9 825.666 579.7 825.666 570.3 826.866C563.6 827.666 557.6 832.266 556.6 843.766C556.3 848.066 556.3 850.866 556.6 855.166C557.6 866.366 563.6 871.466 570.3 872.266L570.4 872.266L570.4 874.666L563 874.666C559.2 874.666 556.6 877.466 556.6 881.666L556.6 885.666C556.6 889.866 559.2 892.666 562.9 892.666L604.7 892.666C608.5 892.666 611 889.866 611 885.666L611 881.666C611 877.466 608.5 874.666 604.7 874.666L597.1 874.666L597.1 872.266L597.2 872.266C603.8 871.566 610.3 866.366 611.1 855.166ZM640.4 810.866C640.4 806.666 637.9 803.866 634.1 803.866L620.5 803.866C616.7 803.866 614.2 806.666 614.2 810.866L614.2 885.666C614.2 889.866 616.7 892.666 620.5 892.666L634.1 892.666C637.9 892.666 640.4 889.866 640.4 885.666L640.4 810.866ZM611.1 813.866C611.1 809.666 608.6 806.866 604.8 806.866L600 806.866C596.7 806.866 595.2 801.666 592 801.666L574.3 801.666C571.1 801.666 569.6 806.866 566.3 806.866L563 806.866C559.2 806.866 556.6 809.666 556.6 813.866L556.6 817.366C556.6 821.566 559.2 824.366 562.9 824.366L604.8 824.366C608.6 824.366 611.1 821.566 611.1 817.366L611.1 813.866ZM582.7 854.566C583.9 851.966 583.9 847.666 582.7 845.066L585.8 845.066C586.7 847.666 586.7 851.966 585.8 854.566L582.7 854.566Z"/>
<path d="M697.2 870.966C697.2 867.766 695.6 865.166 691.3 861.466C688.2 858.866 686.8 853.966 686.8 845.866L686.8 810.866C686.8 806.666 684.3 803.866 680.5 803.866L661.5 803.866C657.7 803.866 655.2 806.666 655.2 810.866L655.2 845.866C655.2 853.966 653.8 858.866 650.7 861.466C646.4 865.166 644.8 867.766 644.8 870.966L644.8 885.666C644.8 889.966 647.4 892.766 651 892.166C660 890.866 667.7 886.566 670.9 880.466C674.5 886.466 682 890.766 690.9 892.166C694.6 892.766 697.2 889.966 697.2 885.666L697.2 870.966ZM728.2 862.566C728.2 858.366 734.4 858.566 734.4 854.366L734.4 839.166C734.4 834.966 728.2 835.166 728.2 830.966L728.2 810.866C728.2 806.666 725.7 803.866 721.9 803.866L706 803.866C702.2 803.866 699.7 806.666 699.7 810.866L699.7 885.666C699.7 889.866 702.2 892.666 706 892.666L721.9 892.666C725.7 892.666 728.2 889.866 728.2 885.666L728.2 862.566Z"/>
<path d="M762.4 872.966C762.4 868.766 759.9 865.966 756.1 865.966L742.9 865.966C739.1 865.966 736.6 868.766 736.6 872.966L736.6 885.666C736.6 889.866 739.1 892.666 742.9 892.666L756.1 892.666C759.9 892.666 762.4 889.866 762.4 885.666L762.4 872.966Z"/>
</g>
<g id="Fill_3">
<path d="M147.05 469.35C147.05 448.35 135.8 437.25 117.2 437.25L78.95 437.25C60.5 437.25 49.1 448.35 49.1 469.35L49.1 539.85C49.1 560.85 60.5 571.95 78.95 571.95L117.2 571.95C135.8 571.95 147.05 560.85 147.05 539.85L147.05 523.05C147.05 516.75 143.3 512.55 137.6 512.55L115.7 512.55C110 512.55 106.25 516.75 106.25 523.05L106.25 528.3C106.25 532.95 104.6 535.35 101.15 535.5L95 535.5C91.4 535.5 90.05 532.95 90.05 528.3L90.05 480.9C90.05 476.25 91.4 473.7 95 473.7L101.15 473.7C104.9 473.7 106.25 476.25 106.25 480.9L106.25 485.4C106.25 491.7 110 495.9 115.7 495.9L137.6 495.9C143.3 495.9 147.05 491.7 147.05 485.4L147.05 469.35Z"/>
<path d="M246.8 503.4C246.8 482.4 236.75 472.8 218.3 472.8L183.95 472.8C165.5 472.8 155.45 482.4 155.45 503.4L155.45 541.35C155.45 562.35 165.5 571.95 183.95 571.95L218.3 571.95C236.75 571.95 246.8 562.35 246.8 541.35L246.8 503.4ZM194 538.8C195.8 528.75 195.65 516.15 194 506.1L206.6 506.1C208.85 516.15 208.85 528.75 206.6 538.8L194 538.8Z"/>
<path d="M298.25 502.05L300.5 502.05C306.2 502.05 309.95 497.85 309.95 491.55L309.95 483.75C309.95 477.45 306.2 473.25 300.5 473.25L298.25 473.25L298.25 472.5C298.25 469.35 299.3 467.55 301.25 466.95C307.7 465.15 310.7 461.85 310.7 456.3L310.7 448.5C310.7 442.2 306.95 438 301.25 438L290 438C271.7 438 258.8 450.75 258.8 471.6L258.8 473.25L257.75 473.25C253.7 473.25 251 476.25 251 480.75L251 493.5C251 498.6 254.15 502.05 258.8 502.05L258.8 560.7C258.8 567 262.55 571.2 268.25 571.2L288.8 571.2C294.5 571.2 298.25 567 298.25 560.7L298.25 502.05Z"/>
<path d="M359.45 502.05L361.7 502.05C367.4 502.05 371.15 497.85 371.15 491.55L371.15 483.75C371.15 477.45 367.4 473.25 361.7 473.25L359.45 473.25L359.45 472.5C359.45 469.35 360.5 467.55 362.45 466.95C368.9 465.15 371.9 461.85 371.9 456.3L371.9 448.5C371.9 442.2 368.15 438 362.45 438L351.2 438C332.9 438 320 450.75 320 471.6L320 473.25L318.95 473.25C314.9 473.25 312.2 476.25 312.2 480.75L312.2 493.5C312.2 498.6 315.35 502.05 320 502.05L320 560.7C320 567 323.75 571.2 329.45 571.2L350 571.2C355.7 571.2 359.45 567 359.45 560.7L359.45 502.05Z"/>
<path d="M470.3 503.4C470.3 482.4 460.25 472.8 441.8 472.8L406.1 472.8C387.65 472.8 377.6 482.4 377.6 503.4L377.6 541.35C377.6 562.35 387.65 571.95 406.1 571.95L441.8 571.95C458.45 571.95 468.2 564.15 470 547.05C470.6 541.05 466.7 536.55 460.85 536.55L437.9 536.55C433.55 536.55 432.2 542.1 428.3 544.05C427.7 544.35 427.1 544.5 426.35 544.5L421.55 544.5C417.8 544.5 417.2 541.95 417.2 537.3L417.2 531.15L460.85 531.15C466.4 531.15 470.3 526.95 470.3 520.65L470.3 503.4ZM417.2 513L417.2 507.45C417.2 502.8 417.8 500.25 421.55 500.25L426.35 500.25C429.95 500.25 430.7 502.8 430.7 507.45L430.7 513L417.2 513Z"/>
<path d="M571.4 503.4C571.4 482.4 561.35 472.8 542.9 472.8L507.2 472.8C488.75 472.8 478.7 482.4 478.7 503.4L478.7 541.35C478.7 562.35 488.75 571.95 507.2 571.95L542.9 571.95C559.55 571.95 569.3 564.15 571.1 547.05C571.7 541.05 567.8 536.55 561.95 536.55L539 536.55C534.65 536.55 533.3 542.1 529.4 544.05C528.8 544.35 528.2 544.5 527.45 544.5L522.65 544.5C518.9 544.5 518.3 541.95 518.3 537.3L518.3 531.15L561.95 531.15C567.5 531.15 571.4 526.95 571.4 520.65L571.4 503.4ZM518.3 513L518.3 507.45C518.3 502.8 518.9 500.25 522.65 500.25L527.45 500.25C531.05 500.25 531.8 502.8 531.8 507.45L531.8 513L518.3 513Z"/>
<path d="M626 570.3C629.15 571.35 632.6 571.95 636.35 571.95L643.1 571.95C661.7 571.95 671.6 562.35 671.6 541.35L671.6 503.4C671.6 482.4 661.7 472.8 643.1 472.8L638 472.8C629.9 472.8 622.1 475.05 618.5 478.5L618.5 448.5C618.5 442.2 614.6 438 609.05 438L589.85 438C584.15 438 580.4 442.2 580.4 448.5L580.4 560.7C580.4 567 584.15 571.2 589.85 571.2L607.1 571.2C612.8 571.2 620.45 568.5 626 570.3ZM619.55 538.8C621.35 528.75 621.2 515.85 619.55 505.8L632.15 505.8C634.1 515.85 634.1 528.75 632.15 538.8L619.55 538.8Z"/>
<path d="M771.35 503.4C771.35 482.4 761.3 472.8 742.85 472.8L708.5 472.8C690.05 472.8 680 482.4 680 503.4L680 541.35C680 562.35 690.05 571.95 708.5 571.95L742.85 571.95C761.3 571.95 771.35 562.35 771.35 541.35L771.35 503.4ZM718.55 538.8C720.35 528.75 720.2 516.15 718.55 506.1L731.15 506.1C733.4 516.15 733.4 528.75 731.15 538.8L718.55 538.8Z"/>
<path d="M873.8 503.4C873.8 482.4 865.1 472.8 846.65 472.8L838.55 472.8C833.6 472.8 828.8 473.7 825.05 475.05C819.65 477 811.85 473.25 806.3 473.25L789.8 473.25C784.1 473.25 780.35 477.45 780.35 483.75L780.35 560.7C780.35 567 784.1 571.2 789.8 571.2L811.1 571.2C816.65 571.2 820.1 567 821.15 560.7C824.15 543.6 824.3 526.35 820.4 509.25L832.1 509.25C836.45 526.35 836 544.05 833 561.45C831.95 567.75 836.75 571.2 842.45 571.2L864.35 571.2C869.9 571.2 873.8 567 873.8 560.7L873.8 503.4Z"/>
<path d="M975.2 503.4C975.2 482.4 965.15 472.8 946.7 472.8L911 472.8C892.55 472.8 882.5 482.4 882.5 503.4L882.5 541.35C882.5 562.35 892.55 571.95 911 571.95L946.7 571.95C963.35 571.95 973.1 564.15 974.9 547.05C975.5 541.05 971.6 536.55 965.75 536.55L942.8 536.55C938.45 536.55 937.1 542.1 933.2 544.05C932.6 544.35 932 544.5 931.25 544.5L926.45 544.5C922.7 544.5 922.1 541.95 922.1 537.3L922.1 531.15L965.75 531.15C971.3 531.15 975.2 526.95 975.2 520.65L975.2 503.4ZM922.1 513L922.1 507.45C922.1 502.8 922.7 500.25 926.45 500.25L931.25 500.25C934.85 500.25 935.6 502.8 935.6 507.45L935.6 513L922.1 513Z"/>
</g>
</defs>
<g id="레이어-1" vectornator:layerName="레이어 1">
<g opacity="0" vectornator:layerName="메인 로고 텍스트 4">
<mask height="1429.44" id="StrokeMask" maskUnits="userSpaceOnUse" width="1972.03" x="-478.294" y="27.5591">
<rect fill="#ffffff" height="1429.44" stroke="none" width="1972.03" x="-478.294" y="27.5591"/>
<use fill="#000000" fill-rule="evenodd" stroke="none" xlink:href="#Fill"/>
</mask>
<use fill="none" mask="url(#StrokeMask)" stroke="#000000" stroke-linecap="butt" stroke-linejoin="round" stroke-width="12" xlink:href="#Fill"/>
</g>
<g opacity="0" vectornator:layerName="텍스트 1">
<mask height="1128.9" id="StrokeMask_2" maskUnits="userSpaceOnUse" width="1538.4" x="-257.2" y="282.866">
<rect fill="#ffffff" height="1128.9" stroke="none" width="1538.4" x="-257.2" y="282.866"/>
<use fill="#000000" fill-rule="evenodd" stroke="none" xlink:href="#Fill_2"/>
</mask>
<use fill="none" mask="url(#StrokeMask_2)" stroke="#000000" stroke-linecap="butt" stroke-linejoin="round" stroke-width="12" xlink:href="#Fill_2"/>
</g>
<g opacity="1" vectornator:layerName="텍스트 2">
<mask height="2040.9" id="StrokeMask_3" maskUnits="userSpaceOnUse" width="2832.3" x="-904" y="-515.85">
<rect fill="#ffffff" height="2040.9" stroke="none" width="2832.3" x="-904" y="-515.85"/>
<use fill="#000000" fill-rule="evenodd" stroke="none" xlink:href="#Fill_3"/>
</mask>
<use fill="none" mask="url(#StrokeMask_3)" stroke="#000000" stroke-linecap="butt" stroke-linejoin="round" stroke-width="18" xlink:href="#Fill_3"/>
</g>
</g>
</svg>
