<?xml version="1.0" encoding="UTF-8" standalone="no"?>
<!DOCTYPE svg PUBLIC "-//W3C//DTD SVG 1.1//EN" "http://www.w3.org/Graphics/SVG/1.1/DTD/svg11.dtd">
<!-- Created with Vectornator (http://vectornator.io/) -->
<svg height="100%" stroke-miterlimit="10" style="fill-rule:nonzero;clip-rule:evenodd;stroke-linecap:round;stroke-linejoin:round;" version="1.1" viewBox="0 0 1920 480" width="100%" xml:space="preserve" xmlns="http://www.w3.org/2000/svg" xmlns:vectornator="http://vectornator.io" xmlns:xlink="http://www.w3.org/1999/xlink">
<defs>
<g id="Fill">
<path d="M230.1 154.2C230.1 112.2 207.6 90 170.4 90L93.9 90C57 90 34.2 112.2 34.2 154.2L34.2 295.2C34.2 337.2 57 359.4 93.9 359.4L170.4 359.4C207.6 359.4 230.1 337.2 230.1 295.2L230.1 261.6C230.1 249 222.6 240.6 211.2 240.6L167.4 240.6C156 240.6 148.5 249 148.5 261.6L148.5 272.1C148.5 281.4 145.2 286.2 138.3 286.5L126 286.5C118.8 286.5 116.1 281.4 116.1 272.1L116.1 177.3C116.1 168 118.8 162.9 126 162.9L138.3 162.9C145.8 162.9 148.5 168 148.5 177.3L148.5 186.3C148.5 198.9 156 207.3 167.4 207.3L211.2 207.3C222.6 207.3 230.1 198.9 230.1 186.3L230.1 154.2Z"/>
<path d="M429.6 222.3C429.6 180.3 409.5 161.1 372.6 161.1L303.9 161.1C267 161.1 246.9 180.3 246.9 222.3L246.9 298.2C246.9 340.2 267 359.4 303.9 359.4L372.6 359.4C409.5 359.4 429.6 340.2 429.6 298.2L429.6 222.3ZM324 293.1C327.6 273 327.3 247.8 324 227.7L349.2 227.7C353.7 247.8 353.7 273 349.2 293.1L324 293.1Z"/>
<path d="M532.5 219.6L537 219.6C548.4 219.6 555.9 211.2 555.9 198.6L555.9 183C555.9 170.4 548.4 162 537 162L532.5 162L532.5 160.5C532.5 154.2 534.6 150.6 538.5 149.4C551.4 145.8 557.4 139.2 557.4 128.1L557.4 112.5C557.4 99.9 549.9 91.5 538.5 91.5L516 91.5C479.4 91.5 453.6 117 453.6 158.7L453.6 162L451.5 162C443.4 162 438 168 438 177L438 202.5C438 212.7 444.3 219.6 453.6 219.6L453.6 336.9C453.6 349.5 461.1 357.9 472.5 357.9L513.6 357.9C525 357.9 532.5 349.5 532.5 336.9L532.5 219.6Z"/>
<path d="M654.9 219.6L659.4 219.6C670.8 219.6 678.3 211.2 678.3 198.6L678.3 183C678.3 170.4 670.8 162 659.4 162L654.9 162L654.9 160.5C654.9 154.2 657 150.6 660.9 149.4C673.8 145.8 679.8 139.2 679.8 128.1L679.8 112.5C679.8 99.9 672.3 91.5 660.9 91.5L638.4 91.5C601.8 91.5 576 117 576 158.7L576 162L573.9 162C565.8 162 560.4 168 560.4 177L560.4 202.5C560.4 212.7 566.7 219.6 576 219.6L576 336.9C576 349.5 583.5 357.9 594.9 357.9L636 357.9C647.4 357.9 654.9 349.5 654.9 336.9L654.9 219.6Z"/>
<path d="M876.6 222.3C876.6 180.3 856.5 161.1 819.6 161.1L748.2 161.1C711.3 161.1 691.2 180.3 691.2 222.3L691.2 298.2C691.2 340.2 711.3 359.4 748.2 359.4L819.6 359.4C852.9 359.4 872.4 343.8 876 309.6C877.2 297.6 869.4 288.6 857.7 288.6L811.8 288.6C803.1 288.6 800.4 299.7 792.6 303.6C791.4 304.2 790.2 304.5 788.7 304.5L779.1 304.5C771.6 304.5 770.4 299.4 770.4 290.1L770.4 277.8L857.7 277.8C868.8 277.8 876.6 269.4 876.6 256.8L876.6 222.3ZM770.4 241.5L770.4 230.4C770.4 221.1 771.6 216 779.1 216L788.7 216C795.9 216 797.4 221.1 797.4 230.4L797.4 241.5L770.4 241.5Z"/>
<path d="M1078.8 222.3C1078.8 180.3 1058.7 161.1 1021.8 161.1L950.4 161.1C913.5 161.1 893.4 180.3 893.4 222.3L893.4 298.2C893.4 340.2 913.5 359.4 950.4 359.4L1021.8 359.4C1055.1 359.4 1074.6 343.8 1078.2 309.6C1079.4 297.6 1071.6 288.6 1059.9 288.6L1014 288.6C1005.3 288.6 1002.6 299.7 994.8 303.6C993.6 304.2 992.4 304.5 990.9 304.5L981.3 304.5C973.8 304.5 972.6 299.4 972.6 290.1L972.6 277.8L1059.9 277.8C1071 277.8 1078.8 269.4 1078.8 256.8L1078.8 222.3ZM972.6 241.5L972.6 230.4C972.6 221.1 973.8 216 981.3 216L990.9 216C998.1 216 999.6 221.1 999.6 230.4L999.6 241.5L972.6 241.5Z"/>
<path d="M1188 356.1C1194.3 358.2 1201.2 359.4 1208.7 359.4L1222.2 359.4C1259.4 359.4 1279.2 340.2 1279.2 298.2L1279.2 222.3C1279.2 180.3 1259.4 161.1 1222.2 161.1L1212 161.1C1195.8 161.1 1180.2 165.6 1173 172.5L1173 112.5C1173 99.9 1165.2 91.5 1154.1 91.5L1115.7 91.5C1104.3 91.5 1096.8 99.9 1096.8 112.5L1096.8 336.9C1096.8 349.5 1104.3 357.9 1115.7 357.9L1150.2 357.9C1161.6 357.9 1176.9 352.5 1188 356.1ZM1175.1 293.1C1178.7 273 1178.4 247.2 1175.1 227.1L1200.3 227.1C1204.2 247.2 1204.2 273 1200.3 293.1L1175.1 293.1Z"/>
<path d="M1478.7 222.3C1478.7 180.3 1458.6 161.1 1421.7 161.1L1353 161.1C1316.1 161.1 1296 180.3 1296 222.3L1296 298.2C1296 340.2 1316.1 359.4 1353 359.4L1421.7 359.4C1458.6 359.4 1478.7 340.2 1478.7 298.2L1478.7 222.3ZM1373.1 293.1C1376.7 273 1376.4 247.8 1373.1 227.7L1398.3 227.7C1402.8 247.8 1402.8 273 1398.3 293.1L1373.1 293.1Z"/>
<path d="M1683.6 222.3C1683.6 180.3 1666.2 161.1 1629.3 161.1L1613.1 161.1C1603.2 161.1 1593.6 162.9 1586.1 165.6C1575.3 169.5 1559.7 162 1548.6 162L1515.6 162C1504.2 162 1496.7 170.4 1496.7 183L1496.7 336.9C1496.7 349.5 1504.2 357.9 1515.6 357.9L1558.2 357.9C1569.3 357.9 1576.2 349.5 1578.3 336.9C1584.3 302.7 1584.6 268.2 1576.8 234L1600.2 234C1608.9 268.2 1608 303.6 1602 338.4C1599.9 351 1609.5 357.9 1620.9 357.9L1664.7 357.9C1675.8 357.9 1683.6 349.5 1683.6 336.9L1683.6 222.3Z"/>
<path d="M1886.4 222.3C1886.4 180.3 1866.3 161.1 1829.4 161.1L1758 161.1C1721.1 161.1 1701 180.3 1701 222.3L1701 298.2C1701 340.2 1721.1 359.4 1758 359.4L1829.4 359.4C1862.7 359.4 1882.2 343.8 1885.8 309.6C1887 297.6 1879.2 288.6 1867.5 288.6L1821.6 288.6C1812.9 288.6 1810.2 299.7 1802.4 303.6C1801.2 304.2 1800 304.5 1798.5 304.5L1788.9 304.5C1781.4 304.5 1780.2 299.4 1780.2 290.1L1780.2 277.8L1867.5 277.8C1878.6 277.8 1886.4 269.4 1886.4 256.8L1886.4 222.3ZM1780.2 241.5L1780.2 230.4C1780.2 221.1 1781.4 216 1788.9 216L1798.5 216C1805.7 216 1807.2 221.1 1807.2 230.4L1807.2 241.5L1780.2 241.5Z"/>
</g>
</defs>
<g id="레이어-1" vectornator:layerName="레이어 1">
<g opacity="1" vectornator:layerName="텍스트 1">
<mask height="4117.8" id="StrokeMask" maskUnits="userSpaceOnUse" width="5700.6" x="-1890" y="-1834.2">
<rect fill="#ffffff" height="4117.8" stroke="none" width="5700.6" x="-1890" y="-1834.2"/>
<use fill="#000000" fill-rule="evenodd" stroke="none" xlink:href="#Fill"/>
</mask>
<use fill="none" mask="url(#StrokeMask)" stroke="#000000" stroke-linecap="butt" stroke-linejoin="round" stroke-width="48" xlink:href="#Fill"/>
</g>
</g>
</svg>
