<?xml version="1.0" encoding="UTF-8" standalone="no"?>
<!DOCTYPE svg PUBLIC "-//W3C//DTD SVG 1.1//EN" "http://www.w3.org/Graphics/SVG/1.1/DTD/svg11.dtd">
<!-- Created with Vectornator (http://vectornator.io/) -->
<svg height="100%" stroke-miterlimit="10" style="fill-rule:nonzero;clip-rule:evenodd;stroke-linecap:round;stroke-linejoin:round;" version="1.1" viewBox="0 0 2160 2160" width="100%" xml:space="preserve" xmlns="http://www.w3.org/2000/svg" xmlns:vectornator="http://vectornator.io" xmlns:xlink="http://www.w3.org/1999/xlink">
<defs/>
<g id="arche--phlox" vectornator:layerName="arche  phlox">
<g opacity="1" vectornator:layerName="그룹 1">
<g opacity="1" vectornator:layerName="그룹 1">
<path d="M1068.97 159.769C1061.07 160.028 1032.62 188.67 1035.22 192.573C1040.16 199.976 1053.76 203.593 1060.53 209.461C1075.15 222.137 1088.22 235.527 1098.97 251.653C1108.43 265.845 1119.19 282.981 1104.61 297.567C1091.64 310.534 1066.78 310.358 1050.22 312.566C1015.21 317.234 977.746 317.12 943.366 324.76C928.894 327.976 919.183 342.695 910.535 353.814C893.424 375.813 838.691 440.214 841.178 470.057C841.514 474.092 856.92 476.888 859.927 477.557C879.816 481.976 899.736 485.922 919.923 488.806C971.576 496.185 1023.71 500.542 1075.53 506.638C1115.94 511.393 1146.77 507.06 1146.77 556.302C1146.77 578.381 1118.85 604.858 1106.47 617.243C1087.43 636.278 1063.7 651.096 1042.72 667.879C1033.14 675.548 1023.35 687.61 1011.78 692.238C998.31 697.626 981.618 696.933 967.726 696.933C942.714 696.933 886.909 676.682 867.426 691.294C839.093 712.544 811.888 759.249 789.625 787.872C736.922 855.634 683.898 923.302 633.996 993.165C614.187 1020.9 593.425 1048.29 575.888 1077.52C569.838 1087.6 561.338 1098.66 559 1110.35C556.587 1122.42 560.893 1136.7 562.75 1148.77C573.962 1221.65 621.599 1278.17 668.688 1332.51C682.164 1348.06 695.957 1363.35 709.936 1378.45C730.521 1400.68 751.782 1422.2 772.737 1444.08C794.247 1466.55 816.082 1488.8 839.289 1509.69C843.418 1513.41 854.599 1526.9 861.788 1527.5C911.026 1531.6 965.678 1525.62 1014.61 1524.69C1152.59 1522.06 1277.4 1464.06 1398.01 1403.75C1424.04 1390.73 1449.66 1376.54 1475.84 1363.45C1485.24 1358.75 1502.7 1353.95 1508.64 1345.64C1510.95 1342.4 1510.39 1328.4 1511.44 1323.15C1514.94 1305.65 1518.56 1288.21 1521.75 1270.65C1533.26 1207.37 1543.06 1143.8 1553.64 1080.35C1562.05 1029.87 1567.46 978.17 1579.88 928.475C1582.14 919.437 1584.45 907.075 1590.19 899.421C1593.03 895.636 1603.55 884.994 1601.44 879.728C1599.57 875.058 1585.85 873.255 1581.75 872.228C1564 867.792 1546.27 863.621 1528.33 860.034C1468.5 848.068 1407.05 840.255 1348.34 823.481C1335.68 819.862 1301.34 813.998 1294.9 800.038C1291.37 792.384 1299.98 788.157 1301.46 782.233C1306.02 763.996 1309.18 746.097 1310.85 726.931C1317.21 653.688 1327.24 580.818 1333.34 507.555C1335.7 479.24 1337.76 450.73 1337.09 422.254C1337.07 421.371 1336.07 420.585 1335.2 420.393C1324.59 418.035 1309.32 418.736 1298.65 418.504C1261.79 417.703 1224.88 417.667 1188.02 418.504C1174.27 418.817 1160.52 419.449 1146.77 419.449C1136.63 419.449 1118.26 419.75 1108.36 413.81C1074.19 393.309 1126.19 350.744 1138.36 336.954C1142.92 331.785 1150.61 324.455 1152.41 317.26C1160.74 283.926 1139.27 252.732 1139.27 219.766C1139.27 211.822 1155.43 181.623 1154.27 178.518C1151.61 171.431 1137.33 171.309 1131.77 170.074C1111.18 165.497 1090.06 159.079 1068.97 159.769ZM1081.16 861.284C1092.88 861.25 1104.59 861.868 1116.19 863.256C1140.75 866.197 1164.91 872.648 1188.44 880.311C1208.28 886.775 1227.72 894.939 1245.74 905.476C1259.02 913.243 1271.2 923.265 1281.46 934.724C1287.3 941.251 1290.69 949.873 1293.07 958.306C1294.86 964.662 1295.56 971.762 1293.65 978.083C1286.28 1002.53 1272.97 1024.92 1265.57 1049.36C1262.23 1060.4 1260.07 1072.34 1261.68 1083.77C1263.51 1096.74 1269.48 1108.93 1275.62 1120.49C1287.41 1142.64 1304.47 1161.84 1315.26 1184.49C1319.46 1193.3 1320.88 1203.69 1319.9 1213.4C1318.97 1222.56 1314.82 1231.39 1309.73 1239.07C1290.05 1268.81 1250.89 1288.17 1219.35 1301.45C1198.65 1310.17 1177.64 1318.2 1156.33 1325.31C1140.5 1330.59 1124.61 1336.49 1108.05 1338.56C1077.28 1342.42 1046.09 1344.43 1015.11 1343.01C1000.19 1342.32 985.308 1338.23 971.587 1332.31C962.232 1328.28 953.098 1322.17 947.311 1313.79C928.211 1286.12 919.139 1251.94 898.036 1225.76C868.014 1188.53 827.993 1160.49 795.458 1125.44C789.079 1118.56 785.128 1109.56 782.015 1100.71C779.714 1094.18 778.271 1086.9 779.487 1080.08C781.241 1070.23 784.357 1060.01 790.653 1052.25C805.157 1034.36 822.843 1019.18 840.678 1004.61C862.145 987.073 886.448 973.275 908.257 956.168C937.36 933.339 963.946 907.388 993.308 884.894C1008.41 873.328 1027.2 865.295 1046.11 863.256C1057.72 862.004 1069.45 861.318 1081.16 861.284Z" fill="#000000" fill-rule="nonzero" opacity="1" stroke="none" vectornator:layerName="곡선 1"/>
</g>
<g opacity="1" vectornator:layerName="그룹 1">
<path d="M1083.07 886.297C1133.68 886.297 1251.91 903.784 1260.66 965.013C1266.63 1006.83 1231.28 1045.11 1233.78 1088.85C1236.05 1128.57 1282.24 1156.71 1288.5 1196.36C1300.39 1271.65 1136.36 1313.25 1084.99 1318.27C985.448 1328.01 989.783 1286.92 930.438 1225.16C867.346 1159.49 740.468 1107.78 848.843 1020.69C859.369 1012.23 870.371 1004.37 881.481 996.691C905.576 980.043 930.31 964.335 954.437 947.734C994.555 920.129 1031.81 890.85 1083.07 886.297Z" fill="#000000" fill-rule="nonzero" opacity="1" stroke="none"/>
</g>
<g fill="#000000" opacity="0" stroke="#000000" stroke-linecap="butt" stroke-linejoin="bevel" stroke-width="11" vectornator:layerName="텍스트 1">
<path d="M405.25 1785.28C416.25 1784.78 428.25 1782.28 441.75 1776.28C422.25 1799.28 399.75 1829.78 392.25 1854.78C389.75 1863.78 388.25 1873.28 388.25 1881.28C388.25 1910.28 405.75 1932.28 437.75 1933.28C467.25 1934.28 503.25 1912.28 516.75 1881.28C522.75 1867.28 521.25 1853.78 518.25 1847.78C514.25 1837.78 505.75 1837.28 502.25 1845.28C486.25 1881.78 458.25 1914.78 440.75 1913.28C433.25 1912.78 429.25 1904.78 429.25 1892.28C429.25 1885.78 430.25 1877.78 432.75 1870.28C440.75 1845.78 465.75 1811.28 487.75 1786.28C492.75 1779.28 495.25 1772.28 495.25 1766.28C495.25 1753.28 487.75 1740.28 480.75 1732.78C473.75 1725.28 468.75 1726.78 459.25 1733.28C444.75 1743.28 428.75 1750.78 414.75 1754.28C419.75 1737.78 423.25 1723.28 423.25 1711.78C423.25 1700.78 418.25 1693.78 407.75 1694.28C391.75 1695.28 360.75 1731.78 360.75 1757.28C360.75 1767.28 364.75 1775.28 375.75 1780.78C352.75 1851.28 312.25 1908.28 283.25 1911.28C278.25 1911.78 275.75 1907.28 275.75 1899.28C275.75 1892.28 279.25 1881.78 283.25 1870.78C288.75 1857.28 298.75 1841.28 307.75 1825.28C315.25 1811.28 323.25 1799.28 329.25 1785.78C334.75 1774.28 336.75 1763.78 336.75 1754.78C336.75 1743.78 333.25 1734.78 327.75 1728.78C321.25 1721.78 314.25 1724.28 307.75 1732.28C305.75 1735.28 302.25 1740.28 298.25 1746.78C293.75 1734.28 283.25 1725.78 266.25 1725.78C239.75 1725.78 199.25 1748.28 159.25 1805.78C141.25 1831.78 133.25 1857.78 133.25 1879.28C133.25 1909.78 149.25 1930.78 178.25 1930.78C199.75 1930.78 219.75 1917.28 235.25 1900.78C239.25 1920.78 255.25 1933.28 281.25 1931.78C335.25 1927.78 380.75 1854.28 405.25 1785.28ZM276.25 1765.78C276.25 1778.78 267.25 1803.28 248.25 1836.78C223.75 1879.78 199.75 1908.78 183.25 1908.78C179.25 1908.78 177.75 1902.28 177.75 1893.78C177.75 1876.78 185.25 1852.28 200.25 1828.28C226.75 1786.28 259.75 1756.28 273.25 1756.28C275.25 1756.28 276.25 1759.28 276.25 1765.78Z"/>
<path d="M607.75 1727.28C578.75 1727.28 539.25 1754.28 513.75 1805.78C503.25 1825.78 498.25 1845.78 498.25 1863.78C498.25 1903.78 523.75 1933.28 569.75 1932.78C608.75 1932.28 649.25 1907.78 668.25 1877.78C677.25 1863.78 677.25 1850.78 674.75 1844.28C671.75 1835.78 664.25 1837.78 659.75 1845.28C639.75 1875.28 605.25 1913.78 567.75 1913.28C554.25 1912.78 545.25 1899.28 545.25 1877.28C545.25 1862.28 550.25 1841.78 560.25 1821.28C580.25 1780.78 612.75 1748.28 618.75 1753.28C620.75 1755.28 617.25 1764.28 612.25 1774.28C603.25 1794.78 600.75 1804.78 600.75 1811.28C600.75 1824.78 609.25 1834.28 618.25 1839.78C628.25 1844.78 632.75 1843.78 636.25 1834.28C638.25 1828.78 641.25 1821.28 645.25 1813.78C654.75 1794.28 662.75 1775.78 655.25 1759.28C647.25 1744.28 626.25 1727.28 607.75 1727.28Z"/>
<path d="M859.75 1879.28C867.25 1864.28 863.75 1852.78 861.25 1846.78C857.25 1838.28 849.25 1839.28 845.75 1846.78C830.75 1877.28 804.25 1912.78 786.75 1912.78C779.75 1912.78 777.25 1906.28 777.25 1895.78C777.25 1887.78 779.25 1877.28 783.75 1866.28C789.25 1854.28 801.75 1833.28 829.25 1784.28C833.25 1777.28 834.75 1770.28 834.75 1763.28C834.75 1743.78 820.25 1728.28 805.75 1728.28C796.25 1728.28 778.75 1734.28 763.75 1745.28C768.75 1738.28 799.75 1691.78 809.75 1675.28C821.75 1654.28 827.75 1635.78 827.75 1622.28C827.75 1615.28 826.25 1608.78 823.75 1603.28C819.25 1593.28 811.75 1591.28 803.75 1601.28C763.25 1653.28 664.25 1820.78 644.25 1873.28C631.75 1906.28 638.75 1918.28 646.75 1927.78C652.75 1935.28 660.25 1933.78 664.25 1924.78C676.25 1894.78 694.25 1860.28 711.25 1832.28C737.75 1789.28 785.25 1757.78 789.75 1757.78C793.25 1757.78 785.75 1769.78 776.25 1786.28C757.25 1815.78 732.75 1859.28 732.75 1890.78C732.75 1916.78 747.75 1933.28 780.75 1933.28C812.75 1933.28 845.25 1908.28 859.75 1879.28Z"/>
<path d="M970.25 1754.78C975.75 1759.28 965.25 1782.78 950.75 1802.28C940.75 1815.78 924.75 1830.78 912.75 1830.78C909.25 1830.78 905.75 1829.78 901.75 1827.28C925.75 1779.28 962.75 1748.78 970.25 1754.78ZM1007.75 1774.78C1007.75 1768.28 1005.75 1760.78 1002.75 1756.28C995.75 1746.28 985.75 1738.28 971.75 1730.28C966.75 1727.28 961.25 1726.28 954.25 1726.28C925.25 1726.28 884.75 1752.78 858.75 1805.78C848.25 1825.78 843.25 1845.28 843.25 1863.28C843.25 1903.28 868.75 1933.78 915.25 1933.28C954.25 1932.78 994.25 1909.28 1015.25 1878.78C1024.25 1865.28 1023.75 1850.78 1022.25 1846.28C1018.25 1836.28 1011.75 1837.28 1006.25 1845.28C985.75 1876.28 952.25 1913.28 914.25 1913.28C899.25 1913.28 890.25 1897.78 890.25 1875.78C890.25 1866.78 891.75 1856.28 894.75 1846.28C906.25 1853.78 918.25 1857.28 930.25 1857.28C974.25 1857.28 1007.75 1804.78 1007.75 1774.78Z"/>
<path d="M1300.25 1807.78C1321.75 1771.28 1349.25 1748.28 1358.25 1752.28C1360.75 1753.28 1361.75 1759.28 1361.75 1768.28C1361.75 1784.78 1355.75 1810.28 1343.75 1833.78C1323.25 1875.28 1300.75 1902.78 1285.25 1902.78C1272.25 1902.78 1268.75 1866.78 1284.25 1834.78L1300.25 1807.78ZM1404.25 1783.28C1404.25 1757.78 1389.75 1730.78 1359.75 1730.78C1346.25 1730.78 1331.75 1737.28 1319.25 1745.78C1319.25 1739.28 1318.25 1732.78 1314.25 1727.28C1310.25 1721.78 1303.75 1719.78 1294.75 1730.78C1263.75 1772.28 1181.25 1927.78 1166.75 1975.28C1162.25 1989.28 1160.75 1999.78 1160.75 2007.78C1160.75 2018.28 1163.25 2025.28 1170.75 2034.78C1175.75 2040.78 1181.75 2038.78 1185.75 2029.78C1206.75 1980.78 1228.25 1937.78 1250.25 1896.78C1261.75 1923.78 1286.25 1937.28 1325.75 1937.28C1367.25 1937.28 1409.25 1923.28 1431.75 1882.78C1440.25 1867.78 1439.75 1853.78 1438.75 1848.78C1436.75 1838.78 1426.25 1836.28 1420.25 1847.78C1405.75 1876.78 1377.25 1909.78 1340.25 1917.28C1356.25 1904.28 1372.75 1881.78 1384.75 1854.28C1396.25 1830.28 1404.25 1804.78 1404.25 1783.28Z"/>
<path d="M1625.25 1879.28C1632.75 1864.28 1629.25 1852.78 1626.75 1846.78C1622.75 1838.28 1614.75 1839.28 1611.25 1846.78C1596.25 1877.28 1569.75 1912.78 1552.25 1912.78C1545.25 1912.78 1542.75 1906.28 1542.75 1895.78C1542.75 1887.78 1544.75 1877.28 1549.25 1866.28C1554.75 1854.28 1567.25 1833.28 1594.75 1784.28C1598.75 1777.28 1600.25 1770.28 1600.25 1763.28C1600.25 1743.78 1585.75 1728.28 1571.25 1728.28C1561.75 1728.28 1544.25 1734.28 1529.25 1745.28C1534.25 1738.28 1565.25 1691.78 1575.25 1675.28C1587.25 1654.28 1593.25 1635.78 1593.25 1622.28C1593.25 1615.28 1591.75 1608.78 1589.25 1603.28C1584.75 1593.28 1577.25 1591.28 1569.25 1601.28C1528.75 1653.28 1429.75 1820.78 1409.75 1873.28C1397.25 1906.28 1404.25 1918.28 1412.25 1927.78C1418.25 1935.28 1425.75 1933.78 1429.75 1924.78C1441.75 1894.78 1459.75 1860.28 1476.75 1832.28C1503.25 1789.28 1550.75 1757.78 1555.25 1757.78C1558.75 1757.78 1551.25 1769.78 1541.75 1786.28C1522.75 1815.78 1498.25 1859.28 1498.25 1890.78C1498.25 1916.78 1513.25 1933.28 1546.25 1933.28C1578.25 1933.28 1610.75 1908.28 1625.25 1879.28Z"/>
<path d="M1779.25 1657.28C1779.25 1644.28 1773.75 1630.28 1762.75 1620.78C1753.25 1611.78 1744.25 1614.78 1734.75 1624.28C1685.75 1675.78 1629.25 1768.28 1609.75 1851.28C1607.25 1861.28 1606.25 1871.28 1606.25 1879.78C1606.25 1914.28 1625.25 1931.78 1655.75 1931.78C1697.75 1931.78 1734.75 1890.78 1742.25 1875.78C1748.75 1862.28 1749.25 1850.78 1747.25 1843.28C1743.75 1830.28 1732.75 1830.28 1726.25 1842.78C1707.25 1878.78 1678.25 1912.28 1655.25 1912.28C1648.75 1912.28 1645.75 1903.78 1645.75 1891.78C1645.75 1874.28 1652.25 1851.78 1662.25 1826.28C1706.25 1796.78 1760.75 1737.78 1776.25 1678.28C1778.75 1669.78 1779.25 1664.28 1779.25 1657.28ZM1751.25 1669.78C1754.25 1671.78 1747.75 1693.78 1730.75 1722.28C1719.25 1741.78 1702.25 1764.78 1680.75 1785.78C1684.25 1777.28 1706.25 1739.78 1719.25 1717.78C1736.25 1688.28 1749.25 1668.78 1751.25 1669.78Z"/>
<path d="M1897.25 1817.78C1901.25 1812.78 1900.25 1808.28 1887.25 1808.28C1891.75 1765.78 1877.75 1762.28 1863.75 1745.78C1854.25 1732.78 1845.25 1727.28 1830.75 1727.28C1797.75 1727.28 1766.25 1752.28 1743.75 1792.28C1730.75 1815.78 1722.75 1840.28 1722.75 1862.28C1722.75 1878.28 1727.25 1893.28 1736.75 1905.78C1750.75 1924.28 1769.25 1931.28 1785.75 1931.28C1793.25 1931.28 1799.25 1929.78 1803.75 1928.28C1841.75 1915.28 1873.75 1866.28 1884.25 1824.78C1889.75 1823.78 1893.75 1821.78 1897.25 1817.78ZM1849.75 1798.28C1844.25 1791.78 1841.75 1778.78 1841.75 1769.78C1841.75 1761.78 1846.25 1757.78 1849.25 1757.78C1852.75 1757.78 1856.75 1760.78 1856.75 1768.28C1856.75 1774.78 1854.75 1786.78 1849.75 1798.28ZM1761.75 1884.78C1761.75 1866.28 1769.75 1838.28 1782.75 1814.28C1791.25 1799.28 1800.75 1786.78 1811.25 1776.78C1815.25 1794.28 1825.75 1807.28 1841.75 1817.28C1838.75 1827.78 1832.75 1840.28 1825.25 1853.28C1806.75 1887.28 1786.75 1905.78 1773.75 1905.78C1766.25 1905.78 1761.75 1899.78 1761.75 1884.78ZM2036.75 1847.78C2022.75 1877.78 1998.75 1911.28 1986.25 1911.28C1980.25 1911.28 1976.25 1902.78 1973.25 1886.78L1964.25 1834.28C1995.75 1811.78 2009.25 1799.28 2017.75 1789.28C2034.75 1769.28 2045.75 1753.78 2045.75 1738.28C2045.75 1721.78 2034.75 1722.28 2025.25 1734.28C2005.75 1760.28 1983.25 1782.28 1960.75 1801.78C1958.25 1786.78 1956.75 1777.78 1954.25 1766.78C1948.75 1745.28 1935.25 1727.28 1914.75 1727.28C1903.25 1727.28 1896.75 1728.78 1900.25 1738.78C1905.75 1752.28 1913.75 1798.28 1919.25 1834.78C1903.25 1847.78 1887.75 1861.78 1876.75 1873.28C1858.75 1893.28 1846.25 1909.78 1845.25 1925.78C1844.75 1933.78 1847.75 1936.78 1851.75 1936.78C1855.75 1936.78 1861.25 1932.78 1864.75 1928.78C1881.75 1907.78 1902.75 1887.78 1924.25 1869.28C1927.25 1913.78 1945.75 1932.78 1975.25 1932.78C2002.25 1932.78 2033.75 1911.28 2049.25 1880.78C2056.75 1866.28 2056.75 1853.28 2054.25 1847.78C2050.75 1838.78 2042.25 1836.28 2036.75 1847.78Z"/>
</g>
</g>
</g>
</svg>
